<mxfile host="app.diagrams.net" modified="2023-05-17T06:30:16.830Z" agent="Mozilla/5.0 (Windows NT 10.0; Win64; x64) AppleWebKit/537.36 (KHTML, like Gecko) Chrome/113.0.0.0 Safari/537.36" etag="5fNTYukRIC1-gIZyrX5T" version="21.3.2" type="device">
  <diagram name="Page-1" id="2YBvvXClWsGukQMizWep">
    <mxGraphModel dx="1371" dy="1209" grid="1" gridSize="10" guides="1" tooltips="1" connect="1" arrows="1" fold="1" page="1" pageScale="1" pageWidth="850" pageHeight="1100" math="0" shadow="0">
      <root>
        <mxCell id="0" />
        <mxCell id="1" parent="0" />
        <mxCell id="L52m96enX81RPmkyRl3H-1" value="Actor" style="shape=umlActor;verticalLabelPosition=bottom;verticalAlign=top;html=1;outlineConnect=0;" parent="1" vertex="1">
          <mxGeometry x="30" y="60" width="30" height="60" as="geometry" />
        </mxCell>
        <mxCell id="4HUcwExj78zZGMUGEO0a-5" value="" style="endArrow=none;dashed=1;html=1;dashPattern=1 3;strokeWidth=2;rounded=0;entryX=0.5;entryY=0.5;entryDx=0;entryDy=0;entryPerimeter=0;" edge="1" parent="1" source="4HUcwExj78zZGMUGEO0a-9" target="L52m96enX81RPmkyRl3H-1">
          <mxGeometry width="50" height="50" relative="1" as="geometry">
            <mxPoint x="45" y="720" as="sourcePoint" />
            <mxPoint x="480" y="380" as="targetPoint" />
          </mxGeometry>
        </mxCell>
        <mxCell id="4HUcwExj78zZGMUGEO0a-6" value="WebBrowser &amp;amp;&lt;br&gt;VueServer" style="rounded=0;whiteSpace=wrap;html=1;" vertex="1" parent="1">
          <mxGeometry x="160" y="40" width="120" height="60" as="geometry" />
        </mxCell>
        <mxCell id="4HUcwExj78zZGMUGEO0a-7" value="" style="endArrow=none;dashed=1;html=1;dashPattern=1 3;strokeWidth=2;rounded=0;entryX=0.5;entryY=1;entryDx=0;entryDy=0;" edge="1" parent="1" target="4HUcwExj78zZGMUGEO0a-6">
          <mxGeometry width="50" height="50" relative="1" as="geometry">
            <mxPoint x="220" y="880" as="sourcePoint" />
            <mxPoint x="55" y="100" as="targetPoint" />
          </mxGeometry>
        </mxCell>
        <mxCell id="4HUcwExj78zZGMUGEO0a-8" value="" style="rounded=0;whiteSpace=wrap;html=1;fillColor=#FFF2CC;" vertex="1" parent="1">
          <mxGeometry x="210" y="160" width="20" height="40" as="geometry" />
        </mxCell>
        <mxCell id="4HUcwExj78zZGMUGEO0a-10" value="" style="endArrow=none;dashed=1;html=1;dashPattern=1 3;strokeWidth=2;rounded=0;entryX=0.5;entryY=0.5;entryDx=0;entryDy=0;entryPerimeter=0;" edge="1" parent="1" source="4HUcwExj78zZGMUGEO0a-32" target="4HUcwExj78zZGMUGEO0a-9">
          <mxGeometry width="50" height="50" relative="1" as="geometry">
            <mxPoint x="45" y="720" as="sourcePoint" />
            <mxPoint x="45" y="90" as="targetPoint" />
          </mxGeometry>
        </mxCell>
        <mxCell id="4HUcwExj78zZGMUGEO0a-9" value="" style="rounded=0;whiteSpace=wrap;html=1;fillColor=#FFF2CC;" vertex="1" parent="1">
          <mxGeometry x="35" y="160" width="20" height="40" as="geometry" />
        </mxCell>
        <mxCell id="4HUcwExj78zZGMUGEO0a-11" value="MemberController" style="rounded=0;whiteSpace=wrap;html=1;" vertex="1" parent="1">
          <mxGeometry x="360" y="40" width="120" height="60" as="geometry" />
        </mxCell>
        <mxCell id="4HUcwExj78zZGMUGEO0a-12" value="" style="endArrow=none;dashed=1;html=1;dashPattern=1 3;strokeWidth=2;rounded=0;entryX=0.5;entryY=1;entryDx=0;entryDy=0;" edge="1" parent="1" target="4HUcwExj78zZGMUGEO0a-11">
          <mxGeometry width="50" height="50" relative="1" as="geometry">
            <mxPoint x="420" y="880" as="sourcePoint" />
            <mxPoint x="255" y="100" as="targetPoint" />
          </mxGeometry>
        </mxCell>
        <mxCell id="4HUcwExj78zZGMUGEO0a-13" value="" style="rounded=0;whiteSpace=wrap;html=1;fillColor=#FFF2CC;" vertex="1" parent="1">
          <mxGeometry x="410" y="220" width="20" height="220" as="geometry" />
        </mxCell>
        <mxCell id="4HUcwExj78zZGMUGEO0a-14" value="MemberService" style="rounded=0;whiteSpace=wrap;html=1;" vertex="1" parent="1">
          <mxGeometry x="560" y="40" width="120" height="60" as="geometry" />
        </mxCell>
        <mxCell id="4HUcwExj78zZGMUGEO0a-15" value="" style="endArrow=none;dashed=1;html=1;dashPattern=1 3;strokeWidth=2;rounded=0;entryX=0.5;entryY=1;entryDx=0;entryDy=0;" edge="1" parent="1" target="4HUcwExj78zZGMUGEO0a-14">
          <mxGeometry width="50" height="50" relative="1" as="geometry">
            <mxPoint x="620" y="880" as="sourcePoint" />
            <mxPoint x="455" y="100" as="targetPoint" />
          </mxGeometry>
        </mxCell>
        <mxCell id="4HUcwExj78zZGMUGEO0a-16" value="" style="rounded=0;whiteSpace=wrap;html=1;fillColor=#FFF2CC;" vertex="1" parent="1">
          <mxGeometry x="610" y="220" width="20" height="220" as="geometry" />
        </mxCell>
        <mxCell id="4HUcwExj78zZGMUGEO0a-17" value="MemberRepository" style="rounded=0;whiteSpace=wrap;html=1;" vertex="1" parent="1">
          <mxGeometry x="760" y="40" width="120" height="60" as="geometry" />
        </mxCell>
        <mxCell id="4HUcwExj78zZGMUGEO0a-18" value="" style="endArrow=none;dashed=1;html=1;dashPattern=1 3;strokeWidth=2;rounded=0;entryX=0.5;entryY=1;entryDx=0;entryDy=0;" edge="1" parent="1" target="4HUcwExj78zZGMUGEO0a-17">
          <mxGeometry width="50" height="50" relative="1" as="geometry">
            <mxPoint x="820" y="880" as="sourcePoint" />
            <mxPoint x="655" y="100" as="targetPoint" />
          </mxGeometry>
        </mxCell>
        <mxCell id="4HUcwExj78zZGMUGEO0a-19" value="" style="rounded=0;whiteSpace=wrap;html=1;fillColor=#FFF2CC;" vertex="1" parent="1">
          <mxGeometry x="810" y="220" width="20" height="220" as="geometry" />
        </mxCell>
        <mxCell id="4HUcwExj78zZGMUGEO0a-20" value="Main DB" style="shape=cylinder3;whiteSpace=wrap;html=1;boundedLbl=1;backgroundOutline=1;size=15;fillColor=#FFF2CC;" vertex="1" parent="1">
          <mxGeometry x="960" y="278" width="110" height="100" as="geometry" />
        </mxCell>
        <mxCell id="4HUcwExj78zZGMUGEO0a-22" value="`" style="edgeStyle=none;orthogonalLoop=1;jettySize=auto;html=1;rounded=0;entryX=0;entryY=0;entryDx=0;entryDy=0;exitX=0.5;exitY=0;exitDx=0;exitDy=0;" edge="1" parent="1" source="4HUcwExj78zZGMUGEO0a-9" target="4HUcwExj78zZGMUGEO0a-8">
          <mxGeometry width="100" relative="1" as="geometry">
            <mxPoint x="30" y="180" as="sourcePoint" />
            <mxPoint x="130" y="180" as="targetPoint" />
            <Array as="points" />
          </mxGeometry>
        </mxCell>
        <mxCell id="4HUcwExj78zZGMUGEO0a-23" value="회원가입 버튼 클릭" style="text;html=1;align=center;verticalAlign=middle;resizable=0;points=[];autosize=1;strokeColor=none;fillColor=none;" vertex="1" parent="1">
          <mxGeometry x="65" y="135" width="130" height="30" as="geometry" />
        </mxCell>
        <mxCell id="4HUcwExj78zZGMUGEO0a-24" value="회원가입 페이지" style="html=1;verticalAlign=bottom;endArrow=open;dashed=1;endSize=8;edgeStyle=elbowEdgeStyle;elbow=vertical;curved=0;rounded=0;exitX=-0.138;exitY=0.971;exitDx=0;exitDy=0;exitPerimeter=0;entryX=1;entryY=1;entryDx=0;entryDy=0;" edge="1" parent="1" source="4HUcwExj78zZGMUGEO0a-8" target="4HUcwExj78zZGMUGEO0a-9">
          <mxGeometry relative="1" as="geometry">
            <mxPoint x="340" y="310" as="sourcePoint" />
            <mxPoint x="54" y="190" as="targetPoint" />
          </mxGeometry>
        </mxCell>
        <mxCell id="4HUcwExj78zZGMUGEO0a-25" value="" style="endArrow=classic;html=1;rounded=0;exitX=1;exitY=0;exitDx=0;exitDy=0;entryX=0;entryY=0;entryDx=0;entryDy=0;" edge="1" parent="1" source="4HUcwExj78zZGMUGEO0a-32" target="4HUcwExj78zZGMUGEO0a-34">
          <mxGeometry width="50" height="50" relative="1" as="geometry">
            <mxPoint x="210" y="280" as="sourcePoint" />
            <mxPoint x="207" y="240" as="targetPoint" />
          </mxGeometry>
        </mxCell>
        <mxCell id="4HUcwExj78zZGMUGEO0a-26" value="id 입력" style="text;html=1;align=center;verticalAlign=middle;resizable=0;points=[];autosize=1;strokeColor=none;fillColor=none;" vertex="1" parent="1">
          <mxGeometry x="100" y="200" width="60" height="30" as="geometry" />
        </mxCell>
        <mxCell id="4HUcwExj78zZGMUGEO0a-27" value="" style="endArrow=classic;html=1;rounded=0;entryX=0.052;entryY=0.092;entryDx=0;entryDy=0;entryPerimeter=0;exitX=1.148;exitY=0.092;exitDx=0;exitDy=0;exitPerimeter=0;" edge="1" parent="1" source="4HUcwExj78zZGMUGEO0a-34" target="4HUcwExj78zZGMUGEO0a-13">
          <mxGeometry width="50" height="50" relative="1" as="geometry">
            <mxPoint x="230" y="255" as="sourcePoint" />
            <mxPoint x="410" y="246" as="targetPoint" />
          </mxGeometry>
        </mxCell>
        <mxCell id="4HUcwExj78zZGMUGEO0a-28" value="id 중복확인요청" style="text;html=1;align=center;verticalAlign=middle;resizable=0;points=[];autosize=1;strokeColor=none;fillColor=none;" vertex="1" parent="1">
          <mxGeometry x="270" y="218" width="110" height="30" as="geometry" />
        </mxCell>
        <mxCell id="4HUcwExj78zZGMUGEO0a-29" value="" style="endArrow=classic;html=1;rounded=0;exitX=0.957;exitY=0.179;exitDx=0;exitDy=0;exitPerimeter=0;entryX=-0.067;entryY=0.179;entryDx=0;entryDy=0;entryPerimeter=0;" edge="1" parent="1" source="4HUcwExj78zZGMUGEO0a-13" target="4HUcwExj78zZGMUGEO0a-16">
          <mxGeometry width="50" height="50" relative="1" as="geometry">
            <mxPoint x="240" y="265" as="sourcePoint" />
            <mxPoint x="610" y="274" as="targetPoint" />
          </mxGeometry>
        </mxCell>
        <mxCell id="4HUcwExj78zZGMUGEO0a-30" value="id 중복확인" style="text;html=1;align=center;verticalAlign=middle;resizable=0;points=[];autosize=1;strokeColor=none;fillColor=none;" vertex="1" parent="1">
          <mxGeometry x="480" y="238" width="80" height="30" as="geometry" />
        </mxCell>
        <mxCell id="4HUcwExj78zZGMUGEO0a-33" value="" style="endArrow=none;dashed=1;html=1;dashPattern=1 3;strokeWidth=2;rounded=0;entryX=0.5;entryY=0.5;entryDx=0;entryDy=0;entryPerimeter=0;" edge="1" parent="1" target="4HUcwExj78zZGMUGEO0a-32">
          <mxGeometry width="50" height="50" relative="1" as="geometry">
            <mxPoint x="45" y="880" as="sourcePoint" />
            <mxPoint x="45" y="180" as="targetPoint" />
          </mxGeometry>
        </mxCell>
        <mxCell id="4HUcwExj78zZGMUGEO0a-32" value="" style="rounded=0;whiteSpace=wrap;html=1;fillColor=#FFF2CC;" vertex="1" parent="1">
          <mxGeometry x="35" y="220" width="20" height="220" as="geometry" />
        </mxCell>
        <mxCell id="4HUcwExj78zZGMUGEO0a-34" value="" style="rounded=0;whiteSpace=wrap;html=1;fillColor=#FFF2CC;" vertex="1" parent="1">
          <mxGeometry x="210" y="220" width="20" height="220" as="geometry" />
        </mxCell>
        <mxCell id="4HUcwExj78zZGMUGEO0a-36" value="" style="endArrow=classic;html=1;rounded=0;" edge="1" parent="1">
          <mxGeometry width="50" height="50" relative="1" as="geometry">
            <mxPoint x="640" y="381" as="sourcePoint" />
            <mxPoint x="640" y="411" as="targetPoint" />
            <Array as="points">
              <mxPoint x="690" y="381" />
              <mxPoint x="690" y="411" />
            </Array>
          </mxGeometry>
        </mxCell>
        <mxCell id="4HUcwExj78zZGMUGEO0a-37" value="id 중복 트랜잭션 처리" style="text;html=1;align=center;verticalAlign=middle;resizable=0;points=[];autosize=1;strokeColor=none;fillColor=none;" vertex="1" parent="1">
          <mxGeometry x="620" y="351" width="140" height="30" as="geometry" />
        </mxCell>
        <mxCell id="4HUcwExj78zZGMUGEO0a-39" value="" style="endArrow=classic;html=1;rounded=0;exitX=0.957;exitY=0.179;exitDx=0;exitDy=0;exitPerimeter=0;entryX=-0.067;entryY=0.179;entryDx=0;entryDy=0;entryPerimeter=0;" edge="1" parent="1">
          <mxGeometry width="50" height="50" relative="1" as="geometry">
            <mxPoint x="630" y="300" as="sourcePoint" />
            <mxPoint x="810" y="300" as="targetPoint" />
          </mxGeometry>
        </mxCell>
        <mxCell id="4HUcwExj78zZGMUGEO0a-41" value="id 중복확인" style="text;html=1;align=center;verticalAlign=middle;resizable=0;points=[];autosize=1;strokeColor=none;fillColor=none;" vertex="1" parent="1">
          <mxGeometry x="680" y="278" width="80" height="30" as="geometry" />
        </mxCell>
        <mxCell id="4HUcwExj78zZGMUGEO0a-42" value="" style="endArrow=classic;html=1;rounded=0;exitX=0.957;exitY=0.179;exitDx=0;exitDy=0;exitPerimeter=0;entryX=-0.012;entryY=0.442;entryDx=0;entryDy=0;entryPerimeter=0;" edge="1" parent="1" target="4HUcwExj78zZGMUGEO0a-20">
          <mxGeometry width="50" height="50" relative="1" as="geometry">
            <mxPoint x="830" y="322" as="sourcePoint" />
            <mxPoint x="1010" y="322" as="targetPoint" />
          </mxGeometry>
        </mxCell>
        <mxCell id="4HUcwExj78zZGMUGEO0a-43" value="id 중복확인" style="text;html=1;align=center;verticalAlign=middle;resizable=0;points=[];autosize=1;strokeColor=none;fillColor=none;" vertex="1" parent="1">
          <mxGeometry x="850" y="300" width="80" height="30" as="geometry" />
        </mxCell>
        <mxCell id="4HUcwExj78zZGMUGEO0a-44" value="" style="html=1;verticalAlign=bottom;endArrow=open;dashed=1;endSize=8;edgeStyle=elbowEdgeStyle;elbow=vertical;curved=0;rounded=0;entryX=1;entryY=1;entryDx=0;entryDy=0;" edge="1" parent="1">
          <mxGeometry relative="1" as="geometry">
            <mxPoint x="960" y="343" as="sourcePoint" />
            <mxPoint x="830" y="343" as="targetPoint" />
          </mxGeometry>
        </mxCell>
        <mxCell id="4HUcwExj78zZGMUGEO0a-45" value="중복 여부 반환" style="text;html=1;align=center;verticalAlign=middle;resizable=0;points=[];autosize=1;strokeColor=none;fillColor=none;" vertex="1" parent="1">
          <mxGeometry x="840" y="321" width="100" height="30" as="geometry" />
        </mxCell>
        <mxCell id="4HUcwExj78zZGMUGEO0a-47" value="" style="html=1;verticalAlign=bottom;endArrow=open;dashed=1;endSize=8;edgeStyle=elbowEdgeStyle;elbow=vertical;curved=0;rounded=0;entryX=1;entryY=1;entryDx=0;entryDy=0;" edge="1" parent="1" source="4HUcwExj78zZGMUGEO0a-19">
          <mxGeometry relative="1" as="geometry">
            <mxPoint x="760" y="350.52" as="sourcePoint" />
            <mxPoint x="630" y="350.52" as="targetPoint" />
          </mxGeometry>
        </mxCell>
        <mxCell id="4HUcwExj78zZGMUGEO0a-48" value="중복 여부 반환" style="text;html=1;align=center;verticalAlign=middle;resizable=0;points=[];autosize=1;strokeColor=none;fillColor=none;" vertex="1" parent="1">
          <mxGeometry x="670" y="327" width="100" height="30" as="geometry" />
        </mxCell>
        <mxCell id="4HUcwExj78zZGMUGEO0a-49" value="" style="html=1;verticalAlign=bottom;endArrow=open;dashed=1;endSize=8;edgeStyle=elbowEdgeStyle;elbow=vertical;curved=0;rounded=0;entryX=1;entryY=1;entryDx=0;entryDy=0;" edge="1" parent="1">
          <mxGeometry relative="1" as="geometry">
            <mxPoint x="610" y="413" as="sourcePoint" />
            <mxPoint x="430" y="413.52" as="targetPoint" />
          </mxGeometry>
        </mxCell>
        <mxCell id="4HUcwExj78zZGMUGEO0a-50" value="중복 여부 반환" style="text;html=1;align=center;verticalAlign=middle;resizable=0;points=[];autosize=1;strokeColor=none;fillColor=none;" vertex="1" parent="1">
          <mxGeometry x="470" y="390" width="100" height="30" as="geometry" />
        </mxCell>
        <mxCell id="4HUcwExj78zZGMUGEO0a-51" value="" style="html=1;verticalAlign=bottom;endArrow=open;dashed=1;endSize=8;edgeStyle=elbowEdgeStyle;elbow=vertical;curved=0;rounded=0;entryX=1;entryY=1;entryDx=0;entryDy=0;" edge="1" parent="1">
          <mxGeometry relative="1" as="geometry">
            <mxPoint x="410" y="423" as="sourcePoint" />
            <mxPoint x="230" y="423.52" as="targetPoint" />
          </mxGeometry>
        </mxCell>
        <mxCell id="4HUcwExj78zZGMUGEO0a-52" value="중복 여부 반환" style="text;html=1;align=center;verticalAlign=middle;resizable=0;points=[];autosize=1;strokeColor=none;fillColor=none;" vertex="1" parent="1">
          <mxGeometry x="270" y="400" width="100" height="30" as="geometry" />
        </mxCell>
        <mxCell id="4HUcwExj78zZGMUGEO0a-53" value="" style="html=1;verticalAlign=bottom;endArrow=open;dashed=1;endSize=8;edgeStyle=elbowEdgeStyle;elbow=vertical;curved=0;rounded=0;entryX=1;entryY=1;entryDx=0;entryDy=0;" edge="1" parent="1">
          <mxGeometry relative="1" as="geometry">
            <mxPoint x="210" y="441" as="sourcePoint" />
            <mxPoint x="55" y="440.52" as="targetPoint" />
          </mxGeometry>
        </mxCell>
        <mxCell id="4HUcwExj78zZGMUGEO0a-54" value="중복 여부 출력" style="text;html=1;align=center;verticalAlign=middle;resizable=0;points=[];autosize=1;strokeColor=none;fillColor=none;" vertex="1" parent="1">
          <mxGeometry x="80" y="415" width="100" height="30" as="geometry" />
        </mxCell>
        <mxCell id="4HUcwExj78zZGMUGEO0a-55" value="" style="rounded=0;whiteSpace=wrap;html=1;fillColor=#FFF2CC;" vertex="1" parent="1">
          <mxGeometry x="620" y="375" width="20" height="40" as="geometry" />
        </mxCell>
        <mxCell id="4HUcwExj78zZGMUGEO0a-57" value="" style="rounded=0;whiteSpace=wrap;html=1;fillColor=#FFF2CC;" vertex="1" parent="1">
          <mxGeometry x="410" y="500" width="20" height="220" as="geometry" />
        </mxCell>
        <mxCell id="4HUcwExj78zZGMUGEO0a-58" value="" style="rounded=0;whiteSpace=wrap;html=1;fillColor=#FFF2CC;" vertex="1" parent="1">
          <mxGeometry x="610" y="500" width="20" height="220" as="geometry" />
        </mxCell>
        <mxCell id="4HUcwExj78zZGMUGEO0a-59" value="" style="rounded=0;whiteSpace=wrap;html=1;fillColor=#FFF2CC;" vertex="1" parent="1">
          <mxGeometry x="810" y="500" width="20" height="220" as="geometry" />
        </mxCell>
        <mxCell id="4HUcwExj78zZGMUGEO0a-60" value="" style="endArrow=classic;html=1;rounded=0;exitX=1;exitY=0;exitDx=0;exitDy=0;entryX=0;entryY=0;entryDx=0;entryDy=0;" edge="1" parent="1" source="4HUcwExj78zZGMUGEO0a-66" target="4HUcwExj78zZGMUGEO0a-67">
          <mxGeometry width="50" height="50" relative="1" as="geometry">
            <mxPoint x="210" y="560" as="sourcePoint" />
            <mxPoint x="207" y="520" as="targetPoint" />
          </mxGeometry>
        </mxCell>
        <mxCell id="4HUcwExj78zZGMUGEO0a-61" value="id, password, confirmpassword,&lt;br&gt;name, 주소 입력" style="text;html=1;align=center;verticalAlign=middle;resizable=0;points=[];autosize=1;strokeColor=none;fillColor=none;" vertex="1" parent="1">
          <mxGeometry x="35" y="460" width="190" height="40" as="geometry" />
        </mxCell>
        <mxCell id="4HUcwExj78zZGMUGEO0a-62" value="" style="endArrow=classic;html=1;rounded=0;entryX=0.052;entryY=0.092;entryDx=0;entryDy=0;entryPerimeter=0;exitX=1.148;exitY=0.092;exitDx=0;exitDy=0;exitPerimeter=0;" edge="1" parent="1" source="4HUcwExj78zZGMUGEO0a-67" target="4HUcwExj78zZGMUGEO0a-57">
          <mxGeometry width="50" height="50" relative="1" as="geometry">
            <mxPoint x="230" y="535" as="sourcePoint" />
            <mxPoint x="410" y="526" as="targetPoint" />
          </mxGeometry>
        </mxCell>
        <mxCell id="4HUcwExj78zZGMUGEO0a-63" value="회원가입 요청" style="text;html=1;align=center;verticalAlign=middle;resizable=0;points=[];autosize=1;strokeColor=none;fillColor=none;" vertex="1" parent="1">
          <mxGeometry x="275" y="498" width="100" height="30" as="geometry" />
        </mxCell>
        <mxCell id="4HUcwExj78zZGMUGEO0a-64" value="" style="endArrow=classic;html=1;rounded=0;exitX=0.957;exitY=0.179;exitDx=0;exitDy=0;exitPerimeter=0;entryX=-0.067;entryY=0.179;entryDx=0;entryDy=0;entryPerimeter=0;" edge="1" parent="1" source="4HUcwExj78zZGMUGEO0a-57" target="4HUcwExj78zZGMUGEO0a-58">
          <mxGeometry width="50" height="50" relative="1" as="geometry">
            <mxPoint x="240" y="545" as="sourcePoint" />
            <mxPoint x="610" y="554" as="targetPoint" />
          </mxGeometry>
        </mxCell>
        <mxCell id="4HUcwExj78zZGMUGEO0a-65" value="회원가입" style="text;html=1;align=center;verticalAlign=middle;resizable=0;points=[];autosize=1;strokeColor=none;fillColor=none;" vertex="1" parent="1">
          <mxGeometry x="485" y="518" width="70" height="30" as="geometry" />
        </mxCell>
        <mxCell id="4HUcwExj78zZGMUGEO0a-66" value="" style="rounded=0;whiteSpace=wrap;html=1;fillColor=#FFF2CC;" vertex="1" parent="1">
          <mxGeometry x="35" y="500" width="20" height="220" as="geometry" />
        </mxCell>
        <mxCell id="4HUcwExj78zZGMUGEO0a-67" value="" style="rounded=0;whiteSpace=wrap;html=1;fillColor=#FFF2CC;" vertex="1" parent="1">
          <mxGeometry x="210" y="500" width="20" height="220" as="geometry" />
        </mxCell>
        <mxCell id="4HUcwExj78zZGMUGEO0a-68" value="" style="endArrow=classic;html=1;rounded=0;" edge="1" parent="1">
          <mxGeometry width="50" height="50" relative="1" as="geometry">
            <mxPoint x="640" y="661" as="sourcePoint" />
            <mxPoint x="640" y="691" as="targetPoint" />
            <Array as="points">
              <mxPoint x="690" y="661" />
              <mxPoint x="690" y="691" />
            </Array>
          </mxGeometry>
        </mxCell>
        <mxCell id="4HUcwExj78zZGMUGEO0a-69" value="회원가입 트랜잭션 처리" style="text;html=1;align=center;verticalAlign=middle;resizable=0;points=[];autosize=1;strokeColor=none;fillColor=none;" vertex="1" parent="1">
          <mxGeometry x="619" y="633" width="150" height="30" as="geometry" />
        </mxCell>
        <mxCell id="4HUcwExj78zZGMUGEO0a-70" value="" style="endArrow=classic;html=1;rounded=0;exitX=0.957;exitY=0.179;exitDx=0;exitDy=0;exitPerimeter=0;entryX=-0.067;entryY=0.179;entryDx=0;entryDy=0;entryPerimeter=0;" edge="1" parent="1">
          <mxGeometry width="50" height="50" relative="1" as="geometry">
            <mxPoint x="630" y="588" as="sourcePoint" />
            <mxPoint x="810" y="588" as="targetPoint" />
          </mxGeometry>
        </mxCell>
        <mxCell id="4HUcwExj78zZGMUGEO0a-71" value="회원가입" style="text;html=1;align=center;verticalAlign=middle;resizable=0;points=[];autosize=1;strokeColor=none;fillColor=none;" vertex="1" parent="1">
          <mxGeometry x="695" y="566" width="70" height="30" as="geometry" />
        </mxCell>
        <mxCell id="4HUcwExj78zZGMUGEO0a-72" value="" style="endArrow=classic;html=1;rounded=0;exitX=0.957;exitY=0.179;exitDx=0;exitDy=0;exitPerimeter=0;entryX=1;entryY=0.5;entryDx=0;entryDy=0;entryPerimeter=0;" edge="1" parent="1" target="4HUcwExj78zZGMUGEO0a-20">
          <mxGeometry width="50" height="50" relative="1" as="geometry">
            <mxPoint x="830" y="602" as="sourcePoint" />
            <mxPoint x="1180" y="600" as="targetPoint" />
            <Array as="points">
              <mxPoint x="1160" y="600" />
              <mxPoint x="1160" y="328" />
            </Array>
          </mxGeometry>
        </mxCell>
        <mxCell id="4HUcwExj78zZGMUGEO0a-73" value="회원정보&lt;br&gt;insert" style="text;html=1;align=center;verticalAlign=middle;resizable=0;points=[];autosize=1;strokeColor=none;fillColor=none;" vertex="1" parent="1">
          <mxGeometry x="870" y="600" width="70" height="40" as="geometry" />
        </mxCell>
        <mxCell id="4HUcwExj78zZGMUGEO0a-76" value="" style="html=1;verticalAlign=bottom;endArrow=open;dashed=1;endSize=8;edgeStyle=elbowEdgeStyle;elbow=vertical;curved=0;rounded=0;entryX=1;entryY=1;entryDx=0;entryDy=0;" edge="1" parent="1" source="4HUcwExj78zZGMUGEO0a-59">
          <mxGeometry relative="1" as="geometry">
            <mxPoint x="760" y="630.52" as="sourcePoint" />
            <mxPoint x="630" y="630.52" as="targetPoint" />
          </mxGeometry>
        </mxCell>
        <mxCell id="4HUcwExj78zZGMUGEO0a-78" value="" style="html=1;verticalAlign=bottom;endArrow=open;dashed=1;endSize=8;edgeStyle=elbowEdgeStyle;elbow=vertical;curved=0;rounded=0;entryX=1;entryY=1;entryDx=0;entryDy=0;" edge="1" parent="1">
          <mxGeometry relative="1" as="geometry">
            <mxPoint x="610" y="693" as="sourcePoint" />
            <mxPoint x="430" y="693.52" as="targetPoint" />
          </mxGeometry>
        </mxCell>
        <mxCell id="4HUcwExj78zZGMUGEO0a-79" value="성공 여부 반환" style="text;html=1;align=center;verticalAlign=middle;resizable=0;points=[];autosize=1;strokeColor=none;fillColor=none;" vertex="1" parent="1">
          <mxGeometry x="470" y="670" width="100" height="30" as="geometry" />
        </mxCell>
        <mxCell id="4HUcwExj78zZGMUGEO0a-80" value="" style="html=1;verticalAlign=bottom;endArrow=open;dashed=1;endSize=8;edgeStyle=elbowEdgeStyle;elbow=vertical;curved=0;rounded=0;entryX=1;entryY=1;entryDx=0;entryDy=0;" edge="1" parent="1">
          <mxGeometry relative="1" as="geometry">
            <mxPoint x="410" y="703" as="sourcePoint" />
            <mxPoint x="230" y="703.52" as="targetPoint" />
          </mxGeometry>
        </mxCell>
        <mxCell id="4HUcwExj78zZGMUGEO0a-81" value="성공 여부 반환" style="text;html=1;align=center;verticalAlign=middle;resizable=0;points=[];autosize=1;strokeColor=none;fillColor=none;" vertex="1" parent="1">
          <mxGeometry x="270" y="680" width="100" height="30" as="geometry" />
        </mxCell>
        <mxCell id="4HUcwExj78zZGMUGEO0a-82" value="" style="html=1;verticalAlign=bottom;endArrow=open;dashed=1;endSize=8;edgeStyle=elbowEdgeStyle;elbow=vertical;curved=0;rounded=0;entryX=1;entryY=1;entryDx=0;entryDy=0;" edge="1" parent="1">
          <mxGeometry relative="1" as="geometry">
            <mxPoint x="210" y="721" as="sourcePoint" />
            <mxPoint x="55" y="720.52" as="targetPoint" />
          </mxGeometry>
        </mxCell>
        <mxCell id="4HUcwExj78zZGMUGEO0a-83" value="성공 시, 로그인 페이지 이동" style="text;html=1;align=center;verticalAlign=middle;resizable=0;points=[];autosize=1;strokeColor=none;fillColor=none;" vertex="1" parent="1">
          <mxGeometry x="45" y="695" width="170" height="30" as="geometry" />
        </mxCell>
        <mxCell id="4HUcwExj78zZGMUGEO0a-84" value="" style="rounded=0;whiteSpace=wrap;html=1;fillColor=#FFF2CC;" vertex="1" parent="1">
          <mxGeometry x="620" y="655" width="20" height="40" as="geometry" />
        </mxCell>
        <mxCell id="4HUcwExj78zZGMUGEO0a-86" value="salt 생성 및 비밀번호 암호화" style="text;html=1;align=center;verticalAlign=middle;resizable=0;points=[];autosize=1;strokeColor=none;fillColor=none;" vertex="1" parent="1">
          <mxGeometry x="619" y="518" width="180" height="30" as="geometry" />
        </mxCell>
        <mxCell id="4HUcwExj78zZGMUGEO0a-87" value="" style="rounded=0;whiteSpace=wrap;html=1;fillColor=#FFF2CC;" vertex="1" parent="1">
          <mxGeometry x="620" y="540" width="20" height="30" as="geometry" />
        </mxCell>
        <mxCell id="4HUcwExj78zZGMUGEO0a-88" value="Secure DB" style="shape=cylinder3;whiteSpace=wrap;html=1;boundedLbl=1;backgroundOutline=1;size=15;fillColor=#FFF2CC;" vertex="1" parent="1">
          <mxGeometry x="960" y="480" width="110" height="100" as="geometry" />
        </mxCell>
        <mxCell id="4HUcwExj78zZGMUGEO0a-90" value="" style="endArrow=classic;html=1;rounded=0;exitX=0.75;exitY=0;exitDx=0;exitDy=0;" edge="1" parent="1" source="4HUcwExj78zZGMUGEO0a-87">
          <mxGeometry width="50" height="50" relative="1" as="geometry">
            <mxPoint x="660" y="540" as="sourcePoint" />
            <mxPoint x="810" y="540" as="targetPoint" />
          </mxGeometry>
        </mxCell>
        <mxCell id="4HUcwExj78zZGMUGEO0a-91" value="" style="endArrow=classic;html=1;rounded=0;exitX=0.75;exitY=0;exitDx=0;exitDy=0;" edge="1" parent="1">
          <mxGeometry width="50" height="50" relative="1" as="geometry">
            <mxPoint x="830" y="550" as="sourcePoint" />
            <mxPoint x="960" y="550" as="targetPoint" />
          </mxGeometry>
        </mxCell>
        <mxCell id="4HUcwExj78zZGMUGEO0a-92" value="id, salt 저장" style="text;html=1;align=center;verticalAlign=middle;resizable=0;points=[];autosize=1;strokeColor=none;fillColor=none;" vertex="1" parent="1">
          <mxGeometry x="843" y="528" width="90" height="30" as="geometry" />
        </mxCell>
        <mxCell id="4HUcwExj78zZGMUGEO0a-95" value="" style="html=1;verticalAlign=bottom;endArrow=open;dashed=1;endSize=8;edgeStyle=elbowEdgeStyle;elbow=vertical;curved=0;rounded=0;" edge="1" parent="1">
          <mxGeometry relative="1" as="geometry">
            <mxPoint x="960" y="558.48" as="sourcePoint" />
            <mxPoint x="830" y="558" as="targetPoint" />
            <Array as="points" />
          </mxGeometry>
        </mxCell>
        <mxCell id="4HUcwExj78zZGMUGEO0a-96" value="" style="html=1;verticalAlign=bottom;endArrow=open;dashed=1;endSize=8;edgeStyle=elbowEdgeStyle;elbow=vertical;curved=0;rounded=0;" edge="1" parent="1">
          <mxGeometry relative="1" as="geometry">
            <mxPoint x="810" y="569.48" as="sourcePoint" />
            <mxPoint x="640" y="569" as="targetPoint" />
          </mxGeometry>
        </mxCell>
      </root>
    </mxGraphModel>
  </diagram>
</mxfile>
